<svg width="179" height="150" viewBox="0 0 179 150" fill="none" xmlns="http://www.w3.org/2000/svg">
<g filter="url(#filter0_d_63_1021)">
<path d="M27.0701 35.0994C27.508 30.4522 31.8304 27.1705 36.4324 27.9518C83.1879 35.8892 110.654 38.3594 150.789 38.7591C155.196 38.803 158.768 42.3765 158.768 46.784L158.768 116.722C158.768 120.914 155.525 124.406 151.339 124.632C108.613 126.944 74.3613 121.606 26.9876 111.858C22.9986 111.037 20.2625 107.338 20.6446 103.284L27.0701 35.0994Z" fill="url(#paint0_linear_63_1021)"/>
</g>
<mask id="mask0_63_1021" style="mask-type:alpha" maskUnits="userSpaceOnUse" x="20" y="1" width="139" height="125">
<path d="M27.2476 9.23346C27.5874 4.50717 31.9518 1.11521 36.6236 1.90771C83.2629 9.81941 110.709 12.2834 150.789 12.6826C155.196 12.7265 158.768 16.3001 158.768 20.7075L158.768 116.722C158.768 120.914 155.525 124.406 151.339 124.632C108.567 126.946 74.2866 121.595 26.8325 111.826C22.9098 111.019 20.1879 107.423 20.4752 103.428L27.2476 9.23346Z" fill="url(#paint1_linear_63_1021)"/>
</mask>
<g mask="url(#mask0_63_1021)">
<path fill-rule="evenodd" clip-rule="evenodd" d="M97.3732 46.7248L101.889 46.0836L96.9407 45.6963C96.8028 45.418 96.6335 45.1364 96.4474 44.8609L99.9521 42.634L95.7402 44.0105C95.6179 43.8856 95.486 43.7756 95.3453 43.6727C95.1536 43.5244 94.9216 43.3797 94.6651 43.2404L95.7965 39.3934L93.6508 42.7962C93.2505 42.6574 92.8389 42.5494 92.4135 42.4957L89.8767 37.7122L91.3289 42.4832C90.8759 42.5384 90.4442 42.6917 90.0726 42.9552L87.6128 41.3977L87.562 41.8714L89.4743 43.5457C89.2055 43.8922 89.0358 44.2093 88.9334 44.4937L87.2748 44.5473L87.2232 45.0288L88.8109 45.2631C88.8322 45.8083 89.1026 46.1168 89.1026 46.1168L89.1011 46.2045L87.0521 46.6234L87.0233 46.8918L89.0663 46.9753C89.0471 47.4523 89.0431 48.0108 89.067 48.3088C89.1157 48.8968 89.1624 49.2053 89.4116 49.264C89.6538 49.3139 89.8977 49.1245 89.8977 49.1245L89.9055 49.5725C89.9055 49.5725 89.5956 50.154 89.3576 50.5117C89.1266 50.8782 88.8734 51.378 88.8734 51.378C88.8734 51.378 87.8848 50.7689 87.5564 50.4063C87.2367 50.0366 87.2018 50.0648 87.086 49.5813C86.9702 49.0978 87.1103 48.8334 86.9097 48.3966C86.8973 48.3634 86.877 48.3293 86.8646 48.296L78.1613 129.404L101.866 131.947L103.081 120.101L104.263 118.687L102.757 117.839L103.073 115.421L99.098 113.917C99.0343 113.766 98.9574 113.59 98.8821 113.398C98.0553 111.282 97.7338 108.548 97.7338 108.548C97.7338 108.548 98.1521 109.04 98.1983 107.345C98.2437 105.657 98.061 103.713 98.1117 102.72C98.1623 101.728 98.4873 100.485 98.4873 100.485C98.4873 100.485 99.2945 100.18 99.2024 99.2522C99.1025 98.3232 99.1485 96.1084 99.1485 96.1084C99.1485 96.1084 99.5762 96.2901 99.5721 94.9882C99.5769 93.6792 99.9712 80.1078 99.9712 80.1078C99.9712 80.1078 100.717 80.3794 101.07 80.7287C101.425 81.0702 103.098 81.2498 104.051 79.8829C105.005 78.516 105.429 77.3878 105.564 76.6517C105.699 75.9156 106.507 74.8605 106.531 74.1126C106.555 73.3646 106.944 71.8254 106.561 71.2254C106.179 70.6254 106.31 69.9209 106.235 69.354C106.16 68.787 106.22 68.6816 106.059 68.3929C105.899 68.0962 105.641 67.5975 105.641 67.5975L107.199 64.7624L106.234 62.5988L105.076 62.227L103.69 64.4977C103.69 64.4977 103.306 64.209 103.103 64.0195C102.9 63.83 101.791 60.9883 101.464 60.0909C101.137 59.1935 100.698 58.4517 100.284 57.8483C99.8773 57.2458 99.7259 57.0938 99.2839 56.8228C98.8419 56.5518 99.4622 56.4267 98.6827 55.9518C97.9033 55.4769 97.2493 54.7999 97.0467 54.0835C96.8441 53.3671 96.8816 53.5388 96.8816 53.5388C96.8816 53.5388 97.2777 53.7171 97.4322 53.3185C97.5868 52.9198 97.175 52.0692 97.175 52.0692C97.175 52.0692 97.5843 51.0831 97.506 50.5477C97.4277 50.0123 97.039 49.6912 97.039 49.6912L96.9613 48.8524C96.9613 48.8524 97.0915 49.2018 97.3777 48.8412C97.6639 48.4807 97.6462 48.1993 97.5107 47.3783C97.5153 47.1872 97.4583 46.9735 97.3732 46.7248ZM87.6207 41.3986L85.4896 40.0521L87.5699 41.8722L87.6207 41.3986ZM87.2819 44.5561L87.2302 45.0376L85.2574 44.746C85.2973 45.3412 85.5857 45.5558 85.8357 45.6066C86.0858 45.6574 86.2089 46.2215 86.4713 46.7527L87.067 46.633L87.0382 46.9013L86.5375 46.8796C86.8174 47.3967 86.742 47.8756 86.8891 48.2906L78.1859 129.399L68.224 128.33L69.5793 115.7L68.8862 114.196L70.5249 113.286L70.8036 110.689L75.1165 110.752C75.1881 110.68 75.2667 110.617 75.3699 110.548C76.4185 109.854 77.8742 109.236 78.7644 108.158C79.6616 107.088 80.5538 102.345 80.838 100.739C81.1221 99.1326 81.138 98.4636 81.138 98.4636C81.138 98.4636 80.7822 97.092 80.5506 95.9014C80.3191 94.7108 80.0737 93.5746 80.0107 92.6735C79.939 91.7795 79.9549 91.1105 79.8491 89.7897C79.7433 88.4689 80.1465 84.7115 80.1465 84.7115C80.1465 84.7115 80.1615 84.0504 80.055 83.48C79.9486 82.9097 79.9729 82.1617 79.9729 82.1617C79.9729 82.1617 79.8394 81.6204 79.731 80.7704C79.6296 79.9291 79.6419 78.7727 79.7468 77.0513C79.8438 75.329 80.5743 73.2835 80.5743 73.2835C80.5743 73.2835 80.3209 72.8172 80.0346 72.2116C79.7482 71.6059 79.8811 69.4005 80.7278 67.0161C81.5745 64.6317 83.2331 62.9413 83.2331 62.9413C83.2331 62.9413 83.1294 62.6427 82.8112 61.5147C82.4931 60.3867 82.6068 60.2951 82.5424 58.811C82.486 57.3278 82.3346 57.623 81.9205 57.0915C81.5065 56.56 81.8272 55.5804 81.6171 55.6776C81.3983 55.7819 81.3347 55.4077 80.6191 55.3789C79.8957 55.3492 80.2184 54.4256 80.4016 53.016C80.5848 51.6065 81.5487 49.8415 81.818 49.4153C82.0794 48.9882 81.9732 48.2662 81.8282 47.4601C81.6831 46.6541 81.5412 45.7446 81.0757 44.1297C80.6102 42.5147 80.4489 39.4792 80.3929 38.5869C80.3378 37.6867 80.336 36.2893 80.3157 36.4787C80.2962 36.6603 79.9415 36.9895 79.6416 36.9573C79.3416 36.9251 79.0463 36.0311 79.0463 36.0311C79.0463 36.0311 78.9313 35.9868 78.9765 35.4168C79.0217 34.8467 78.8006 34.823 78.6829 34.507C78.5651 34.1909 78.8653 34.0714 78.8653 34.0714C78.8653 34.0714 78.8676 33.7523 79.0549 33.421C79.2421 33.0898 79.1256 31.9435 79.1256 31.9435C79.1256 31.9435 78.835 31.8245 78.6323 31.3316C78.4297 30.8388 78.8974 30.7213 78.8974 30.7213C78.8974 30.7213 78.5589 30.4534 78.6004 30.0667C78.6419 29.6799 78.8804 29.6895 78.8804 29.6895C78.8804 29.6895 78.567 29.3365 78.6699 28.9722C78.772 28.6159 79.1678 28.7223 79.1678 28.7223L79.2195 28.2407C79.2195 28.2407 79.1491 27.9298 79.0668 27.7293C78.6194 27.4338 78.3542 27.0779 78.6271 26.9156C78.4681 26.8347 78.3004 26.7608 78.1634 26.6982C77.7594 26.5191 77.6151 26.1523 77.4373 25.9495C77.2594 25.7468 77.328 25.5546 77.4923 25.4365C77.6567 25.3184 77.7825 24.741 77.9046 24.5705C77.918 24.1487 77.3432 23.7756 77.3432 23.7756L77.8055 23.8572L77.7128 23.456L78.2595 23.5705L78.4318 23.2297L79.1935 23.4232L79.6599 22.9463L80.136 23.197C80.1414 22.998 80.0969 22.8175 79.9484 22.4902C79.5946 21.9173 79.2497 20.8902 79.8365 20.2585C80.4224 19.6347 80.671 19.9967 81.1236 19.5742C81.5761 19.1516 82.0696 18.6457 82.4738 18.8966C82.8868 19.1406 82.3098 20.2763 82.7553 20.0686C83.2008 19.8609 83.3899 20.2565 83.872 20.0048C84.3541 19.7531 84.7602 19.0941 84.8715 19.3216C84.9828 19.5491 84.8105 19.8899 84.7174 20.3111C84.6235 20.7402 83.3203 21.5745 83.0318 22.0306C82.7512 22.4875 82.639 22.715 82.4332 22.7728C82.3097 22.8074 82.3209 23.0003 82.3446 23.2264C82.3592 23.3877 82.3801 23.5655 82.3631 23.7234L83.4316 23.6624L83.4981 24.0847L84.2283 24.0513L84.0526 24.4237L84.5439 24.5323C84.5439 24.5323 84.1802 24.7967 83.9789 25.1105C83.7775 25.4242 84.0478 25.7327 84.2223 26.1905C84.3959 26.6563 83.8546 26.7899 83.8249 27.0661C83.7953 27.3424 82.1099 27.4969 82.1099 27.4969C82.1099 27.4969 82.3283 27.7679 82.2835 27.9627C82.2316 28.1487 81.8315 28.3054 81.8315 28.3054L81.6033 29.3908C81.6033 29.3908 81.7112 29.4263 82.094 30.0263C82.4767 30.6263 82.7148 31.4583 82.9202 32.4465C83.1168 33.4417 83.0175 33.8463 83.3003 35.3777C83.5831 36.9092 83.3602 36.6058 84.0785 38.7668C84.7888 40.927 85.2939 43.7359 85.267 44.5075C85.2627 44.547 85.2672 44.5794 85.263 44.6189L87.2819 44.5561Z" fill="#EAB204"/>
<path d="M44.9834 44.0734L42.9705 43.8574L33.8699 128.667L35.8828 128.883L44.9834 44.0734Z" fill="#EAB204"/>
<path d="M58.7736 45.5532L56.7607 45.3372L47.6602 130.147L49.6731 130.363L58.7736 45.5532Z" fill="#EAB204"/>
<path d="M57.4523 57.8673L41.6491 56.1716L41.4331 58.1845L57.2363 59.8802L57.4523 57.8673Z" fill="#EAB204"/>
<path d="M54.3539 86.7425L38.5507 85.0468L38.3347 87.0597L54.1379 88.7554L54.3539 86.7425Z" fill="#EAB204"/>
<path d="M117.232 94.1844C121.28 87.5683 123.602 81.4058 125.261 76.4417L126.479 76.8439C125.068 81.0601 123.19 86.1364 120.191 91.6193L118.901 103.641C119.912 102.768 120.884 101.898 121.823 101.033C131.118 92.4725 137.101 84.3315 139.24 77.9418L140.459 78.344C139.403 81.4884 137.465 85.0333 134.686 88.8312L129.631 135.941L128.352 135.804L133.18 90.8174C132.098 92.1944 130.901 93.599 129.614 95.0259L125.362 134.652L124.083 134.515L128.152 96.6016C126.477 98.3702 124.663 100.164 122.689 101.972C121.421 103.145 120.089 104.32 118.693 105.504L115.676 133.613L114.398 133.476L117.271 106.7C116.771 107.118 116.255 107.534 115.739 107.949L115.933 106.142C116.45 105.718 116.967 105.294 117.467 104.869L118.59 94.402C118.057 95.2789 117.499 96.1692 116.908 97.0639L117.217 94.1827L117.232 94.1844ZM112.511 100.984C113.057 100.284 113.578 99.5891 114.084 98.8928C115.237 97.3078 116.276 95.7345 117.225 94.1835L116.916 97.0568C116.392 97.847 115.843 98.6504 115.262 99.4504L114.413 107.368C114.928 106.952 115.435 106.543 115.942 106.135L115.748 107.942C115.25 108.344 114.735 108.752 114.221 109.152L111.644 133.172L110.373 133.036L112.818 110.247C112.349 110.604 111.879 110.96 111.402 111.316L111.589 109.572C112.067 109.208 112.538 108.843 113.007 108.487L113.759 101.477C113.277 102.104 112.778 102.729 112.256 103.352L112.511 100.984ZM107.895 106.349C109.588 104.558 111.122 102.759 112.511 100.984L112.256 103.352C111.779 103.931 111.285 104.517 110.767 105.1L110.174 110.634C110.651 110.278 111.12 109.929 111.589 109.572L111.402 111.316C110.933 111.665 110.465 112.014 109.988 112.362L107.799 132.76L106.521 132.623L108.586 113.378C108.067 113.745 107.548 114.121 107.021 114.487L107.203 112.79C107.731 112.416 108.258 112.041 108.769 111.665L109.3 106.723C108.776 107.29 108.227 107.862 107.671 108.433L107.895 106.349ZM103.372 110.774C104.991 109.303 106.498 107.828 107.895 106.349L107.671 108.433C107.143 108.967 106.606 109.5 106.054 110.032L105.64 113.892C106.166 113.525 106.693 113.159 107.203 112.79L107.021 114.487C106.504 114.847 105.986 115.207 105.46 115.573L103.663 132.316L102.384 132.179L104.065 116.518C103.6 116.827 103.135 117.144 102.663 117.453L102.841 115.795C103.314 115.479 103.779 115.162 104.244 114.844L104.616 111.379C104.147 111.808 103.661 112.242 103.176 112.67L103.38 110.775L103.372 110.774ZM70.1146 107.214C73.9546 112.576 78.8632 118.101 85.1737 123.657C92.5193 119.566 98.4883 115.209 103.379 110.783L103.175 112.685C102.707 113.098 102.224 113.509 101.741 113.913L101.439 116.731C101.911 116.422 102.376 116.113 102.84 115.803L102.662 117.461C102.198 117.77 101.734 118.072 101.263 118.373L99.8101 131.911L98.5313 131.773L99.8739 119.262C96.5677 121.35 93.0879 123.42 89.4386 125.432L88.8242 124.312C92.7709 122.133 96.5158 119.899 100.048 117.636L100.323 115.078C96.0844 118.488 91.1513 121.823 85.4049 124.999L85.0977 124.439L84.6787 124.921C79.737 120.598 75.6239 116.292 72.2054 112.061L71.931 114.619C74.9028 117.58 78.0886 120.557 81.4831 123.524L80.6292 124.487C77.4899 121.746 74.5276 118.993 71.7407 116.243L70.3981 128.754L69.1193 128.617L70.572 115.08C70.1751 114.686 69.787 114.285 69.398 113.892L69.5759 112.234C69.964 112.635 70.3522 113.036 70.7482 113.438L71.0506 110.62C70.6577 110.114 70.2805 109.611 69.9104 109.116L70.1146 107.214ZM66.6334 101.929C67.6841 103.671 68.8366 105.432 70.1146 107.214L69.9104 109.116C69.5192 108.595 69.1446 108.068 68.7771 107.549L68.4052 111.014C68.7925 111.423 69.1798 111.832 69.575 112.242L69.3971 113.899C69.0011 113.498 68.6138 113.089 68.2257 112.688L66.5452 128.349L65.2664 128.212L67.0629 111.469C66.6255 111.007 66.188 110.545 65.7593 110.076L65.9414 108.379C66.3701 108.848 66.7988 109.317 67.2433 109.788L67.6575 105.928C67.2308 105.291 66.812 104.655 66.4089 104.021L66.6334 101.929ZM63.2617 95.699C64.2408 97.7363 65.3594 99.8126 66.6334 101.929L66.4098 104.013C65.9794 103.336 65.5718 102.67 65.1809 101.997L64.6507 106.939C65.0786 107.416 65.5064 107.893 65.9422 108.371L65.7601 110.068C65.3235 109.598 64.8877 109.12 64.4669 108.652L62.4018 127.896L61.1151 127.758L63.3039 107.361C62.9121 106.92 62.5281 106.479 62.1442 106.039L62.3314 104.294C62.7153 104.735 63.0984 105.183 63.4894 105.632L64.0831 100.099C63.7088 99.4199 63.3495 98.7505 62.9989 98.0741L63.2538 95.6981L63.2617 95.699ZM60.0899 88.0527C60.6882 89.7697 61.3778 91.5285 62.1595 93.3211C62.5062 94.1088 62.8686 94.8982 63.2538 95.6981L62.9997 98.0662C62.6297 97.3478 62.2763 96.6232 61.9291 95.9153L61.1769 102.925C61.5591 103.381 61.9422 103.829 62.3323 104.286L62.1451 106.031C61.7541 105.582 61.3711 105.134 60.988 104.685L58.5426 127.474L57.2638 127.337L59.8414 103.317C59.4248 102.809 59.0152 102.31 58.6057 101.811L58.7996 100.003C59.2004 100.509 59.6162 101.025 60.0328 101.533L60.8824 93.6152C60.4844 92.7101 60.1172 91.8164 59.7737 90.9252L60.082 88.0519L60.0899 88.0527ZM56.009 69.0107C56.5774 74.2058 57.5383 80.7285 60.0908 88.0448L59.7816 90.926C59.3938 89.9263 59.0368 88.9378 58.7017 87.9676L57.5794 98.4268C57.9785 98.9487 58.3935 99.4723 58.8084 99.9959L58.6144 101.804C58.1986 101.288 57.7908 100.773 57.3829 100.258L54.5098 127.034L53.231 126.896L56.2473 98.7869C55.1415 97.3348 54.0893 95.9044 53.0916 94.4879C51.5535 92.3027 50.1549 90.1565 48.8925 88.0808L44.825 125.986L43.5463 125.849L47.7984 86.2228C46.8435 84.5553 45.9799 82.9296 45.2069 81.3535L40.3796 126.34L39.1087 126.203L44.1613 79.1174C42.2593 74.8172 41.1102 70.9412 40.7454 67.6443L42.0214 67.5097C42.7567 74.1999 46.869 83.4242 54.1427 93.7703C54.8769 94.8152 55.6498 95.8723 56.4455 96.9398L57.7355 84.9176C55.9753 78.9239 55.2169 73.5647 54.733 69.1452L56.009 69.0107Z" fill="#EAB204"/>
<path d="M143.339 54.6274L141.326 54.4114L132.226 139.221L134.238 139.437L143.339 54.6274Z" fill="#EAB204"/>
<path d="M129.549 53.1476L127.536 52.9316L118.435 137.742L120.448 137.958L129.549 53.1476Z" fill="#EAB204"/>
<path d="M142.018 66.9416L126.214 65.2458L125.998 67.2587L141.802 68.9545L142.018 66.9416Z" fill="#EAB204"/>
<path d="M138.919 95.8167L123.116 94.121L122.9 96.1339L138.703 97.8296L138.919 95.8167Z" fill="#EAB204"/>
</g>
<defs>
<filter id="filter0_d_63_1021" x="0.609009" y="11.8365" width="178.159" height="137.331" filterUnits="userSpaceOnUse" color-interpolation-filters="sRGB">
<feFlood flood-opacity="0" result="BackgroundImageFix"/>
<feColorMatrix in="SourceAlpha" type="matrix" values="0 0 0 0 0 0 0 0 0 0 0 0 0 0 0 0 0 0 127 0" result="hardAlpha"/>
<feOffset dy="4"/>
<feGaussianBlur stdDeviation="10"/>
<feColorMatrix type="matrix" values="0 0 0 0 0.128906 0 0 0 0 0 0 0 0 0 0.4125 0 0 0 0.16 0"/>
<feBlend mode="normal" in2="BackgroundImageFix" result="effect1_dropShadow_63_1021"/>
<feBlend mode="normal" in="SourceGraphic" in2="effect1_dropShadow_63_1021" result="shape"/>
</filter>
<linearGradient id="paint0_linear_63_1021" x1="97.3111" y1="33.0202" x2="88.8642" y2="122.654" gradientUnits="userSpaceOnUse">
<stop stop-color="#FFD657"/>
<stop offset="1" stop-color="#FFC100"/>
</linearGradient>
<linearGradient id="paint1_linear_63_1021" x1="97.3111" y1="33.0202" x2="88.8643" y2="122.654" gradientUnits="userSpaceOnUse">
<stop stop-color="#651FFF"/>
<stop offset="1" stop-color="#4505D2"/>
</linearGradient>
</defs>
</svg>
