<svg width="179" height="157" viewBox="0 0 179 157" fill="none" xmlns="http://www.w3.org/2000/svg">
<g filter="url(#filter0_d_63_1022)">
<path d="M152.327 43.0641C151.889 38.4169 147.567 35.1352 142.965 35.9164C96.2095 43.8538 68.7435 46.324 28.6082 46.7238C24.201 46.7677 20.6299 50.3412 20.6299 54.7486L20.6299 123.838C20.6299 128.03 23.8727 131.521 28.0583 131.754C70.7836 134.141 105.035 129.502 152.409 119.818C156.399 119.003 159.135 115.303 158.753 111.249L152.327 43.0641Z" fill="url(#paint0_linear_63_1022)"/>
</g>
<mask id="mask0_63_1022" style="mask-type:alpha" maskUnits="userSpaceOnUse" x="20" y="1" width="139" height="132">
<path d="M152.108 8.88059C151.791 4.13653 147.417 0.71914 142.73 1.5142C96.1172 9.41996 68.6761 11.8826 28.6082 12.2816C24.201 12.3255 20.6298 15.8991 20.6298 20.3065L20.6298 123.838C20.6298 128.03 23.8727 131.521 28.0582 131.754C70.8407 134.145 105.127 129.489 152.599 119.779C156.508 118.98 159.226 115.407 158.96 111.426L152.108 8.88059Z" fill="#651FFF"/>
</mask>
<g mask="url(#mask0_63_1022)">
<path d="M92.9127 111.685L93.8163 111.608L93.8235 111.607L95.6308 111.452L95.638 111.451L95.6452 111.45L97.2573 111.312C97.0818 110.796 96.9136 110.278 96.7533 109.768C96.7448 109.754 96.7436 109.74 96.7423 109.725C96.3336 108.442 95.9538 107.157 95.5822 105.798C95.5816 105.79 95.5731 105.777 95.5725 105.769L95.5719 105.762C95.2282 104.474 94.8941 103.126 94.5717 101.661C94.5704 101.646 94.5698 101.639 94.5613 101.625C94.4991 101.325 94.4297 101.025 94.3668 100.717L91.9885 100.921L85.7695 28.4873C85.9719 28.47 86.15 28.593 86.2843 28.8C86.3859 28.966 86.4564 29.193 86.4775 29.4388L86.4781 29.446C86.6258 31.1665 87.0029 32.3357 87.4826 33.0883C88.064 34.0069 88.795 34.2937 89.4167 34.2403C89.5395 34.2297 89.6567 34.3216 89.6678 34.4518L89.6685 34.459L89.7591 35.5144L89.7597 35.5216C89.7709 35.6518 89.6784 35.7617 89.5482 35.7728L88.8109 35.8361L88.9363 37.2964C89.4336 37.4066 89.7559 37.5974 89.7813 37.8938L89.7993 38.1034L89.7999 38.1107L89.8005 38.1179L89.8645 38.8625C89.9507 39.8673 89.5219 40.6396 88.8525 41.1559L88.8226 41.4861C88.9277 42.2854 89.0393 43.0769 89.1431 43.8617C89.1437 43.869 89.1444 43.8762 89.1456 43.8907L89.1462 43.8979L89.3691 45.5609L89.3697 45.5682L89.3703 45.5754L89.371 45.5826L89.3716 45.5899C89.4754 46.3747 89.5852 47.1445 89.6865 47.9004C89.6871 47.9076 89.6883 47.9221 89.689 47.9293L89.6896 47.9366C89.8025 48.7425 89.9141 49.5339 90.0251 50.3182C90.0258 50.3254 90.027 50.3399 90.0276 50.3471C90.1374 51.1169 90.246 51.8722 90.3466 52.6209C90.3564 52.6492 90.3588 52.6781 90.3613 52.707C90.4711 53.4768 90.5803 54.2393 90.6882 54.9874C90.6888 54.9946 90.6901 55.0091 90.6907 55.0163C90.8158 55.8794 90.9396 56.7281 91.0616 57.5551C91.0622 57.5623 91.0628 57.5696 91.0641 57.584C91.1916 58.4761 91.3252 59.353 91.4496 60.2089C91.4503 60.2161 91.4515 60.2306 91.4521 60.2378C91.5557 60.9353 91.658 61.6183 91.7597 62.2941C91.7604 62.3014 91.7616 62.3158 91.7622 62.323C91.8633 62.9916 91.9632 63.6457 92.0624 64.2926L92.063 64.2998C92.0637 64.3071 92.0649 64.3215 92.0655 64.3287L92.0668 64.3432C92.0771 64.3787 92.0868 64.407 92.0827 64.4438C92.1825 65.0979 92.289 65.7442 92.3876 66.3838L92.3895 66.4055C92.5365 67.3541 92.6894 68.2877 92.8399 69.1923C92.8405 69.1995 92.8418 69.214 92.8424 69.2212C92.9991 70.1982 93.1605 71.1456 93.3201 72.0713L93.322 72.0929C93.4566 72.897 93.5971 73.686 93.7286 74.4539C93.7901 74.4923 93.8319 74.5542 93.8381 74.6265C93.8431 74.6844 93.8263 74.7441 93.7933 74.7833C93.9473 75.644 94.0916 76.4763 94.2412 77.2863L94.2437 77.3153C94.4618 78.4981 94.6761 79.6376 94.8868 80.7337L94.8886 80.7554C95.1364 82.0303 95.3865 83.2468 95.6323 84.4127L95.6329 84.4199C95.928 85.8219 96.2302 87.1359 96.5195 88.3855C96.5202 88.3927 96.5214 88.4071 96.522 88.4144C96.7607 89.4134 96.9951 90.3618 97.2336 91.2734L98.9107 91.1295L98.9179 91.1288C99.0408 91.1183 99.1579 91.2102 99.1691 91.3403L99.1697 91.3475L99.2094 91.8102L99.21 91.8174L98.4612 95.4791C100.469 101.985 102.613 106.097 105.327 110.474L106.534 110.37L106.541 110.369C106.664 110.359 106.781 110.451 106.792 110.581L106.793 110.588L107.015 113.169L107.028 113.321L107.245 115.851L108.989 118.264C108.997 118.271 109.005 118.285 109.013 118.299L109.559 119.053C109.648 119.074 109.713 119.156 109.721 119.25C109.722 119.257 109.723 119.272 109.724 119.279L112.873 123.64C112.881 123.647 112.889 123.661 112.898 123.674L115.302 127C115.31 127.006 115.318 127.013 115.319 127.027L117.972 130.703C118.004 130.737 118.023 130.779 118.027 130.829C118.031 130.88 118.063 131.416 118.088 132.048L118.373 135.373L95.1179 137.369L94.7082 132.598L107.344 131.513C107.226 131.152 107.094 130.807 106.95 130.477L106.949 130.47L106.948 130.462C105.85 127.935 104.011 126.105 101.806 124.94L101.799 124.94L101.792 124.941C101.471 124.772 101.137 124.611 100.805 124.472C100.654 124.412 100.503 124.345 100.353 124.293L100.345 124.293L100.338 124.294L100.331 124.295C98.3213 123.535 96.0978 123.253 93.9146 123.44L92.9054 111.686L92.9127 111.685ZM88.5753 112.057L90.1874 111.919L90.1946 111.918L92.0018 111.763L92.0091 111.763L92.0163 111.762L92.9199 111.684L93.9272 123.417L93.8911 123.42C91.7007 123.608 89.5429 124.26 87.6783 125.359L87.6711 125.36L87.6639 125.36L87.6566 125.361C87.5183 125.446 87.3799 125.53 87.2415 125.615C86.9311 125.816 86.6358 126.024 86.3489 126.245L86.3417 126.246L86.3345 126.246C84.3608 127.77 82.8537 129.895 82.2091 132.565L82.2097 132.572L82.2103 132.579C82.1244 132.936 82.0536 133.299 81.9979 133.668L94.7064 132.577L95.116 137.348L71.7738 139.352L71.3847 134.819L71.384 134.812C71.3797 134.762 71.3904 134.717 71.4162 134.678L73.4047 130.612C73.4107 130.596 73.4173 130.589 73.4239 130.581L75.2265 126.894C75.2325 126.879 75.2384 126.864 75.2451 126.856L77.6735 121.892C77.6795 121.877 77.6861 121.869 77.6921 121.854L78.1447 120.934C78.1507 120.919 78.1567 120.904 78.1633 120.896L79.4701 118.221L79.2541 115.705L79.0326 113.124C79.0214 112.994 79.1139 112.884 79.244 112.873L79.2512 112.873L80.4585 112.769C80.7052 112.165 80.9447 111.562 81.1698 110.96L81.1757 110.945L81.1751 110.938C82.5591 107.294 83.6303 103.656 84.3864 98.8067C84.3851 98.7922 84.3918 98.7844 84.3905 98.7699C84.4896 98.1424 84.5795 97.4939 84.6676 96.8236L83.3056 93.3431L83.305 93.3359L83.2653 92.8733L83.2646 92.866C83.2535 92.7359 83.346 92.626 83.4761 92.6148L83.4833 92.6142L85.1532 92.4708C85.5365 87.9448 85.7355 82.4588 85.756 75.4879C85.7547 75.4735 85.7463 75.4596 85.745 75.4452C85.7425 75.4163 85.7473 75.3867 85.752 75.3572C85.765 69.2317 85.6425 61.9528 85.3777 53.1859L85.3771 53.1786C85.3758 53.1642 85.3752 53.1569 85.3746 53.1497C85.3039 50.8837 85.2316 48.5159 85.1435 46.0475L85.1416 46.0259C85.1404 46.0114 85.1392 45.9969 85.1451 45.9819C85.096 44.6462 85.045 43.2888 84.9975 41.8874L84.913 41.5815C84.1654 41.1869 83.6112 40.499 83.5243 39.4869L83.4604 38.7423L83.4598 38.7351L83.4591 38.7279L83.4411 38.5183C83.4163 38.2291 83.7079 37.9783 84.172 37.7855L84.0466 36.3253L83.3165 36.388L83.3093 36.3886C83.1864 36.3992 83.0693 36.3073 83.0581 36.1771L82.96 35.035L82.9594 35.0277C82.9488 34.9048 83.0407 34.7877 83.1709 34.7766C83.7925 34.7232 84.4567 34.3166 84.8802 33.3117C85.2246 32.4884 85.3975 31.2792 85.2492 29.5515L85.2486 29.5443C85.2275 29.2985 85.2654 29.0622 85.33 28.8819C85.4126 28.6564 85.5671 28.5047 85.7695 28.4873L91.9898 100.936L89.6114 101.14C89.602 101.454 89.5853 101.768 89.5752 102.075L89.5771 102.097L89.5777 102.104C89.5098 103.603 89.4108 104.995 89.2918 106.323L89.2925 106.33L89.2937 106.345L89.2943 106.352C89.1671 107.754 89.0053 109.093 88.8213 110.427L88.8219 110.434C88.8225 110.441 88.8165 110.457 88.8172 110.464C88.7377 110.98 88.6601 111.519 88.5753 112.057Z" fill="#EAB204"/>
</g>
<defs>
<filter id="filter0_d_63_1022" x="0.629883" y="19.8012" width="178.159" height="136.571" filterUnits="userSpaceOnUse" color-interpolation-filters="sRGB">
<feFlood flood-opacity="0" result="BackgroundImageFix"/>
<feColorMatrix in="SourceAlpha" type="matrix" values="0 0 0 0 0 0 0 0 0 0 0 0 0 0 0 0 0 0 127 0" result="hardAlpha"/>
<feOffset dy="4"/>
<feGaussianBlur stdDeviation="10"/>
<feColorMatrix type="matrix" values="0 0 0 0 0.128906 0 0 0 0 0 0 0 0 0 0.4125 0 0 0 0.16 0"/>
<feBlend mode="normal" in2="BackgroundImageFix" result="effect1_dropShadow_63_1022"/>
<feBlend mode="normal" in="SourceGraphic" in2="effect1_dropShadow_63_1022" result="shape"/>
</filter>
<linearGradient id="paint0_linear_63_1022" x1="82.1259" y1="40.9811" x2="90.5282" y2="130.142" gradientUnits="userSpaceOnUse">
<stop stop-color="#FFD657"/>
<stop offset="1" stop-color="#FFC100"/>
</linearGradient>
</defs>
</svg>
