<svg width="64" height="60" viewBox="0 0 64 60" fill="none" xmlns="http://www.w3.org/2000/svg">
<path d="M63.0731 2.88873C67.7184 16.079 17.3321 57.006 13.128 59.0028C10.771 60.1223 7.8784 60.7705 7.00174 58.2812C6.70908 57.4502 7.12321 55.8501 8.08351 53.7026L8.08286 53.7044L1.39237 47.6241C0.486605 46.8007 0.425152 45.2418 1.26374 44.3098L1.82583 43.685C2.84359 42.5515 4.23916 41.9861 5.64091 42.1377L14.2261 43.0671C16.3212 39.8876 18.756 36.4436 21.3704 32.9506L3.97448 29.2544C2.59787 28.9615 1.9644 27.1231 2.78611 25.8079L3.62844 24.461C5.03021 22.2188 7.17074 20.7367 9.54236 20.3651L34.9173 16.4015C40.9232 9.75464 46.6071 4.46484 50.4337 2.64732C51.4562 2.16169 52.4907 1.70668 53.5069 1.31856L47.8413 8.18919L48.6158 10.9364L57.3246 0.229483C60.1334 -0.288756 62.1535 0.277336 63.0731 2.88873ZM43.1911 38.9109L55.6659 45.9784C56.4261 46.4099 57.3471 46.2095 57.929 45.4896L58.8594 44.3351C60.5571 42.2301 60.8992 39.124 59.7084 36.6298L54.943 26.6495C54.6481 26.0319 53.9279 25.894 53.4673 26.3673L42.987 37.0983C42.4778 37.6209 42.5836 38.5668 43.1911 38.9109Z" fill="#05BD99"/>
</svg>
