<svg width="103" height="74" viewBox="0 0 103 74" fill="none" xmlns="http://www.w3.org/2000/svg">
<path d="M39.3759 35.0505C51.1296 31.2427 63.4766 28.8447 75.4662 29.4808C83.588 29.9181 91.4355 31.7356 98.4976 34.8424C88.5557 33.9087 82.7673 40.4652 75.5191 45.3619C68.2709 50.2585 61.5075 55.8264 53.7625 60.0114C46.0377 64.1904 36.9393 66.9263 28.6882 65.3823C21.387 63.9976 15.675 59.5006 10.2719 55.1545L8.20804 52.7927C6.6193 50.995 7.51189 48.1328 9.99548 47.0017C19.6059 42.573 29.3108 38.3146 39.3759 35.0505Z" fill="#FFC100"/>
<path d="M69.3541 35.5385C70.7521 34.3102 63.1788 21.5129 62.4528 20.4727C58.1248 14.1791 49.8978 10.5584 41.2234 13.9835C26.5621 19.7964 29.6341 34.1237 31.0604 44.6004C31.0402 44.6064 49.344 53.04 69.3541 35.5385Z" fill="#FFC100"/>
<path d="M30.4025 39.9952C34.204 41.1603 50.6368 44.9073 67.2694 29.0877C68.8149 32.1532 69.9669 35.005 69.3339 35.5445C49.3238 53.046 31.0402 44.6064 31.0402 44.6064C30.8436 43.1233 30.6088 41.5855 30.4025 39.9952Z" fill="#D99800"/>
</svg>
