<svg width="156" height="283" viewBox="0 0 156 283" fill="none" xmlns="http://www.w3.org/2000/svg">
<path d="M89.1872 159.695C89.1872 159.695 77.0826 194.73 73.5376 198.99C69.9926 203.25 22.6029 241.92 17.864 245.996C14.2455 245.152 10.976 240.047 10.976 240.047C10.976 240.047 35.7545 209.438 41.7425 203.984C47.7305 198.53 54.7838 195.335 57.9798 193.261C61.1575 191.186 69.1109 154.351 69.1109 154.351L89.1872 159.695Z" fill="#E0A394"/>
<path d="M83.6584 187.036C86.7626 180.829 100.906 124.88 100.906 124.88C100.906 124.88 74.456 115.883 70.9477 120.584C67.4211 125.284 60.7902 134.722 61.9657 138.578C63.1413 142.453 59.3942 174.697 58.4758 179.287C56.639 186.632 30.9237 210.503 30.9237 210.503L47.455 227.028C47.455 227.028 73.1703 206.83 76.8439 201.322C80.5175 195.813 83.6584 187.036 83.6584 187.036Z" fill="#029F80"/>
<path d="M90.6567 149.026C90.6567 149.026 104.782 180.077 105.48 185.567C106.178 191.057 109.257 253.066 109 259.309C105.914 261.365 99.3264 259.309 99.3264 259.309C99.3264 259.309 98.6835 250.495 96.4242 240.782C93.8711 229.764 89.6648 217.499 89.7383 213.183C89.8668 205.086 89.9954 196.731 90.6567 192.985C91.3179 189.239 72.1233 157.785 72.1233 157.785L90.6567 149.026Z" fill="#E0A394"/>
<path d="M109.19 172.952C93.6507 138.964 73.2621 118.215 73.2621 118.215C73.2621 118.215 48.5938 131.325 49.6041 137.109C49.6041 137.109 86.0279 190.323 86.0279 193.995C86.0279 197.668 89.7015 227.047 89.7015 227.047H111.743C111.762 227.047 112.129 179.434 109.19 172.952Z" fill="#00AF8D"/>
<path d="M92.3465 76.4045C92.3465 76.4045 98.2794 96.8231 102.559 105.71C106.839 114.598 130.975 131.491 140.93 136.412C144.585 141.516 143.502 146.272 145.063 147.668C146.606 149.063 156.396 147.668 154.853 139.295C153.31 130.921 142.859 128.406 137.201 124.311C131.562 120.216 116.225 101.175 113.029 99.2101C110.072 92.0122 104.984 61.164 100.282 56.041C96.1487 51.5606 92.3465 76.4045 92.3465 76.4045Z" fill="#E0A394"/>
<path d="M51.8633 50.5691C51.8633 50.5691 28.9767 50.3303 22.0703 57.7119C15.1823 65.0934 19.8477 110.888 20.1049 121.483C20.3437 132.078 45.2324 138.468 52.8552 131.582C60.4963 124.678 51.8633 50.5691 51.8633 50.5691Z" fill="#00B793"/>
<path d="M69.6068 48.6227C69.6068 48.6227 41.522 47.3741 35.3687 53.7641C29.2154 60.1724 36.6729 110.76 35.3687 120.253C34.0462 129.728 41.32 136.999 57.9247 133.051C74.5295 129.104 69.6068 48.6227 69.6068 48.6227Z" fill="#029F80"/>
<path d="M70.4334 33.4924C70.4334 33.4924 71.5906 51.0465 67.3109 55.1596C77.0092 62.3759 86.2851 53.8926 86.2851 53.8926C86.2851 53.8926 82.0972 45.7582 89.3525 35.9713C87.0565 32.8497 70.4334 33.4924 70.4334 33.4924Z" fill="#E0A394"/>
<path d="M62.9025 53.2132C62.9025 53.2132 67.3109 53.7641 69.4783 50.5507C72.4539 50.973 85.881 52.6807 85.881 52.6807C85.881 52.6807 88.6546 55.2698 91.3547 54.7924C89.2974 59.6399 87.1667 83.0516 80.4073 80.3156C73.6662 77.5797 62.9025 53.2132 62.9025 53.2132Z" fill="#E0A394"/>
<path d="M61.8739 13.5695C61.8739 13.5695 58.5126 24.8071 62.4984 28.6264C66.3557 25.6885 67.4762 14.506 67.4762 14.506L61.8739 13.5695Z" fill="#522D0F"/>
<path d="M64.3169 16.1035C64.3169 16.1035 59.8718 31.344 61.58 37.1097C63.2882 42.8753 66.8149 46.6396 69.515 47.4108C72.2151 48.2003 83.4931 46.4009 86.781 37.6422C91.5383 37.1097 93.0629 32.868 92.8057 30.481C92.5302 28.1123 88.4525 27.5981 87.1851 29.214C88.7464 21.8141 88.0117 15.2037 88.0117 15.2037L64.3169 16.1035Z" fill="#E0A394"/>
<path d="M65.6026 37.33L73.9785 37.7524C73.9785 37.7524 71.7927 40.8188 69.0191 40.8188C66.2639 40.8188 65.6026 37.33 65.6026 37.33Z" fill="white"/>
<path d="M85.2748 18.7476C85.2748 18.7476 84.3932 23.0994 85.5136 25.2845C86.1381 27.5431 85.3483 31.2522 85.3483 31.2522L87.2953 31.5827C87.2953 31.5827 90.9506 28.1123 91.7404 28.9019C92.5302 29.6914 94.4038 34.7226 87.7178 37.4953C86.7994 37.6606 85.9728 40.0293 86.1014 43.2059C88.1953 43.7017 97.4528 33.015 98.2059 25.9823C98.959 18.9496 100.208 9.71351 93.3935 9.32791C92.8057 4.60886 89.2974 0.899725 80.5726 0.0734324C71.8478 -0.75286 66.7965 4.9761 62.5535 7.89567C58.3289 10.8152 56.0145 17.0767 68.1925 18.105C80.4257 19.1516 85.2748 18.7476 85.2748 18.7476Z" fill="#522D0F"/>
<path d="M65.676 52.5338C65.676 52.5338 72.6559 59.9521 80.5358 59.9521C84.2094 59.9521 89.7198 59.9521 90.1791 54.0212C98.3896 56.4817 104.084 60.8886 104.084 60.8886C104.084 60.8886 108.859 75.0273 103.606 95.042C98.3528 115.075 102.577 148.09 102.577 148.09C102.577 148.09 62.1677 151.762 46.9774 141.278C49.604 124.201 50.7244 96.0335 49.7326 83.5657C48.7407 71.0795 46.9774 58.428 46.9774 58.428C46.9774 58.428 59.5962 52.2033 65.676 52.5338Z" fill="#FFC100"/>
<path d="M86.9463 53.4887C86.9463 53.4887 93.1914 54.7006 96.5344 59.5298C99.4733 63.7714 105.7 76.9737 101.824 107.491C106.049 99.4672 107.941 75.67 106.692 68.6557C105.443 61.6598 101.292 50.9914 86.9463 53.4887Z" fill="#00B793"/>
<path d="M44.3875 61.1456C44.3875 61.1456 29.2889 97.0985 27.6358 106.83C26.001 116.562 35.9014 144.289 41.1914 154.058C41.2098 160.337 37.5913 163.587 38.0505 165.626C38.5097 167.645 47.2896 172.163 50.8714 164.451C54.4532 156.72 47.3815 148.622 45.1406 142.03C42.8997 135.438 41.3935 111.035 39.924 107.583C41.6874 99.9997 53.9205 73.5951 56.5839 68.1048C57.888 65.4056 58.6778 59.3278 54.4532 57.1978C47.2896 53.5621 44.3875 61.1456 44.3875 61.1456Z" fill="#E0A394"/>
<path d="M59.284 22.3833L69.0191 23.9992C69.0191 23.9992 68.5966 29.3792 64.6107 29.7281C60.6432 30.0586 57.8697 28.0939 59.284 22.3833Z" fill="#191919"/>
<path d="M71.4804 24.4031L81.3257 25.2478C81.3257 25.2478 81.3257 30.6462 77.3765 31.2889C73.4274 31.9499 70.5069 30.1872 71.4804 24.4031Z" fill="#191919"/>
<path d="M71.8478 25.5232L68.3578 24.9173L68.7436 23.9441L71.609 24.4031L71.8478 25.5232Z" fill="#191919"/>
<path d="M89.7199 29.5629L81.0318 26.5515L81.3257 25.2478L90.5465 29.0487L89.7199 29.5629Z" fill="#191919"/>
<path d="M52.4143 55.5635C52.4143 55.5635 47.4733 54.4434 43.7997 59.9521C40.1261 65.4607 38.2893 72.8055 38.2893 72.8055L52.9838 80.1503C52.9838 80.1503 58.4942 67.2969 58.4942 63.6245C58.4942 59.9521 59.1922 56.6836 52.4143 55.5635Z" fill="#FFC100"/>
<path d="M44.6079 54.4435C44.6079 54.4435 57.9064 52.5705 61.378 66.7277C64.8679 80.8664 57.1166 101.377 46.9774 113.147C45.7835 121.006 47.2713 123.338 47.2713 123.338C47.2713 123.338 58.3472 113.863 65.8047 89.2763C73.2621 64.6711 64.2066 50.9914 56.0145 50.5691C47.8223 50.1467 44.6079 54.4435 44.6079 54.4435Z" fill="#00B793"/>
<path d="M4.58156 244.941C5.54288 244.226 9.49085 240.669 11.3447 238.979C12.2937 241.259 16.9165 243.544 19.1093 244.402C19.4277 245.876 20.4528 249.094 22.0057 250.179C23.9469 251.535 27.1572 253.452 28.1989 255.371C29.4622 257.697 30.4945 261.595 28.692 262.935C25.6879 265.169 18.216 261.395 15.3043 259.361C13.4627 258.075 3.73431 250.703 2.91778 248.978C2.10124 247.252 3.37991 245.835 4.58156 244.941Z" fill="#522D0F"/>
<path d="M96.6476 267.232C97.0357 266.043 98.2542 260.63 98.815 258.072C100.999 259.443 106.317 258.602 108.702 258.01C109.863 259.074 112.678 261.199 114.655 261.186C117.127 261.171 121.019 260.869 123.064 261.875C125.544 263.096 128.774 265.795 128.047 268.024C126.834 271.74 118.19 273.03 114.482 273.053C112.137 273.068 99.4007 272.653 97.6642 271.675C95.9277 270.697 96.1625 268.718 96.6476 267.232Z" fill="#522D0F"/>
</svg>
